<svg id="Layer_1" data-name="Layer 1" xmlns="http://www.w3.org/2000/svg" viewBox="0 0 2016.98 225.66"><defs><style>.cls-1,.cls-2{fill:#fff;}.cls-2{stroke:#fff;stroke-miterlimit:10;stroke-width:7px;}</style></defs><path class="cls-1" d="M600.57,213.18V128.47h35c15.11,0,22.35,10,22.35,21.59,0,10.67-5.84,17.52-13.59,19.43,8.64,1.4,15,10.29,15,20.83,0,12.82-7.24,22.86-22.61,22.86Zm17-50.3h14c6.09,0,9-4.19,9-9.9s-2.92-10-9-10h-14Zm0,35.82h14.6c6.35,0,9.78-4.07,9.78-10.67,0-5.84-3.3-10.67-9.78-10.67h-14.6Z" transform="translate(-92 -107.9)"/><path class="cls-1" d="M693.66,150.31c16.89,0,26.41,13.72,26.41,32.77v4.32H681.59c.64,8.38,5.59,15,14.86,15a18.56,18.56,0,0,0,13.34-6l7,9.15c-5.46,6-13.71,9.14-22,9.14-17.27,0-28.57-12.95-28.57-32.26C666.23,164.66,676.64,150.31,693.66,150.31ZM681.59,177h23.75c-.25-6.35-3.05-14.35-11.94-14.35C684.9,162.63,681.85,170.63,681.59,177Z" transform="translate(-92 -107.9)"/><path class="cls-1" d="M731.63,198.44V165.17h-8V151.84h8V135.07h15.24v16.77H757v13.33H746.87v29.72c0,3.94,1.52,6.35,4.45,6.35a6.09,6.09,0,0,0,4.57-1.78l3.17,11.68c-2.28,2-6.22,3.56-11.81,3.56C736.58,214.7,731.63,209.24,731.63,198.44Z" transform="translate(-92 -107.9)"/><path class="cls-1" d="M768.21,198.44V165.17h-8V151.84h8V135.07h15.23v16.77H793.6v13.33H783.44v29.72c0,3.94,1.53,6.35,4.45,6.35a6.07,6.07,0,0,0,4.57-1.78l3.18,11.68c-2.29,2-6.23,3.56-11.81,3.56C773.16,214.7,768.21,209.24,768.21,198.44Z" transform="translate(-92 -107.9)"/><path class="cls-1" d="M826.37,150.31c16.89,0,26.42,13.72,26.42,32.77v4.32H814.3c.64,8.38,5.59,15,14.86,15a18.56,18.56,0,0,0,13.34-6l7,9.15c-5.46,6-13.71,9.14-22,9.14-17.27,0-28.57-12.95-28.57-32.26C798.94,164.66,809.35,150.31,826.37,150.31ZM814.3,177h23.75c-.25-6.35-3-14.35-11.93-14.35C817.61,162.63,814.56,170.63,814.3,177Z" transform="translate(-92 -107.9)"/><path class="cls-1" d="M861.67,213.18V151.84h15.24v8.5c3.43-5.58,10.16-9.9,16.77-9.9V165.3a15.36,15.36,0,0,0-3.68-.38c-4.83,0-10.55,3.3-13.09,7.36v40.9Z" transform="translate(-92 -107.9)"/><path class="cls-1" d="M959.46,127.07c14.73,0,23.62,8.76,28.2,19.31l-13.85,6.34c-2.66-6-7.36-10.54-14.35-10.54-10.79,0-18.29,10.54-18.29,28.71s7.5,28.7,18.29,28.7a18,18,0,0,0,13-5.08v-13h-16V166.82h32v34.42a36.33,36.33,0,0,1-29,13.46c-21.46,0-35.81-17.53-35.81-43.81S938,127.07,959.46,127.07Z" transform="translate(-92 -107.9)"/><path class="cls-1" d="M996.42,182.44c0-17.14,9.65-32.13,27.68-32.13,18.29,0,27.82,15,27.82,32.13s-9.53,32.26-27.82,32.26C1006.07,214.7,996.42,199.71,996.42,182.44Zm39.75,0c0-10-3.68-18.67-12.07-18.67-8.12,0-11.81,8.64-11.81,18.67s3.69,18.8,11.81,18.8C1032.49,201.24,1036.17,192.6,1036.17,182.44Z" transform="translate(-92 -107.9)"/><path class="cls-1" d="M1074.52,213.18l-20.44-61.34h16.25l12.32,43,12.45-43h16.25l-20.44,61.34Z" transform="translate(-92 -107.9)"/><path class="cls-1" d="M1140.82,150.31c16.89,0,26.41,13.72,26.41,32.77v4.32h-38.48c.64,8.38,5.59,15,14.86,15a18.56,18.56,0,0,0,13.34-6l7,9.15c-5.46,6-13.71,9.14-22,9.14-17.27,0-28.57-12.95-28.57-32.26C1113.39,164.66,1123.8,150.31,1140.82,150.31ZM1128.75,177h23.75c-.25-6.35-3-14.35-11.94-14.35C1132.05,162.63,1129,170.63,1128.75,177Z" transform="translate(-92 -107.9)"/><path class="cls-1" d="M1176.12,213.18V151.84h15.24v8.5c3.43-5.58,10.16-9.9,16.77-9.9V165.3a15.39,15.39,0,0,0-3.69-.38c-4.82,0-10.54,3.3-13.08,7.36v40.9Z" transform="translate(-92 -107.9)"/><path class="cls-1" d="M1249.91,213.18V172.79c0-6.48-2.92-9-8-9s-9,3.94-11.18,7.62v41.79h-15.24V151.84h15.24v8a22.76,22.76,0,0,1,18-9.53c11.3,0,16.38,6.61,16.38,16.77v46.1Z" transform="translate(-92 -107.9)"/><path class="cls-1" d="M1343.25,213.18V171.9c0-5.08-2.16-8.13-7-8.13s-8.64,4.19-10.54,7.62v41.79h-15.24V171.9c0-5-2-8.13-7-8.13-4.7,0-8.63,4.19-10.54,7.62v41.79h-15.24V151.84H1293v8c2.42-4.19,9.53-9.53,17.27-9.53s13.21,3.68,14.86,10.67c2.92-5.33,10.16-10.67,17.91-10.67,9.4,0,15.49,4.95,15.49,16.26v46.61Z" transform="translate(-92 -107.9)"/><path class="cls-1" d="M1395.2,150.31c16.89,0,26.41,13.72,26.41,32.77v4.32h-38.48c.64,8.38,5.59,15,14.86,15a18.54,18.54,0,0,0,13.33-6l7,9.15c-5.46,6-13.72,9.14-22,9.14-17.27,0-28.58-12.95-28.58-32.26C1367.76,164.66,1378.18,150.31,1395.2,150.31ZM1383.13,177h23.75c-.26-6.35-3.05-14.35-11.94-14.35C1386.43,162.63,1383.38,170.63,1383.13,177Z" transform="translate(-92 -107.9)"/><path class="cls-1" d="M1464.92,213.18V172.79c0-6.48-2.92-9-8-9s-9,3.94-11.18,7.62v41.79H1430.5V151.84h15.24v8a22.76,22.76,0,0,1,18-9.53c11.31,0,16.39,6.61,16.39,16.77v46.1Z" transform="translate(-92 -107.9)"/><path class="cls-1" d="M1495.4,198.44V165.17h-8V151.84h8V135.07h15.24v16.77h10.16v13.33h-10.16v29.72c0,3.94,1.52,6.35,4.44,6.35a6.06,6.06,0,0,0,4.57-1.78l3.18,11.68c-2.29,2-6.23,3.56-11.81,3.56C1500.35,214.7,1495.4,209.24,1495.4,198.44Z" transform="translate(-92 -107.9)"/><path class="cls-1" d="M1600.8,213.18l-3.93-15.12h-27.69l-3.94,15.12h-17.65l25.15-84.71h20.57l25.15,84.71ZM1583,143.58l-10.41,39.62h20.83Z" transform="translate(-92 -107.9)"/><path class="cls-1" d="M1625.57,195.27c3.81,4.06,10.67,7.49,16.89,7.49,5.84,0,9-2.41,9-6.35,0-4.19-4.7-6-10.55-7.87-8.63-2.8-19.81-6.1-19.81-19.81,0-9.91,8-18.42,22.35-18.42a31.77,31.77,0,0,1,21.34,7.88l-6.1,10.28a20.78,20.78,0,0,0-15-6.35c-4.83,0-8.13,2.29-8.13,5.72,0,3.68,4.19,5.46,9.91,7.24,8.89,2.79,20.57,6.47,20.57,20.57,0,11-9,19-23.37,19-9.9,0-18.41-3.3-23.62-8.76Z" transform="translate(-92 -107.9)"/><path class="cls-1" d="M1676.62,195.27c3.81,4.06,10.67,7.49,16.89,7.49,5.84,0,9-2.41,9-6.35,0-4.19-4.7-6-10.54-7.87-8.64-2.8-19.82-6.1-19.82-19.81,0-9.91,8-18.42,22.36-18.42a31.76,31.76,0,0,1,21.33,7.88l-6.09,10.28a20.83,20.83,0,0,0-15-6.35c-4.83,0-8.13,2.29-8.13,5.72,0,3.68,4.19,5.46,9.91,7.24,8.89,2.79,20.57,6.47,20.57,20.57,0,11-9,19-23.37,19-9.9,0-18.41-3.3-23.62-8.76Z" transform="translate(-92 -107.9)"/><path class="cls-1" d="M1722.72,182.44c0-17.14,9.65-32.13,27.69-32.13,18.28,0,27.81,15,27.81,32.13s-9.53,32.26-27.81,32.26C1732.37,214.7,1722.72,199.71,1722.72,182.44Zm39.75,0c0-10-3.68-18.67-12.06-18.67-8.13,0-11.82,8.64-11.82,18.67s3.69,18.8,11.82,18.8C1758.79,201.24,1762.47,192.6,1762.47,182.44Z" transform="translate(-92 -107.9)"/><path class="cls-1" d="M1812.38,150.31c9.65,0,16,3.94,19.56,8.26l-7.62,10.54c-2.8-3.43-6.1-5.34-10.29-5.34-8.76,0-14,8-14,18.67s5.21,18.8,14,18.8c4.19,0,7.49-1.91,10.29-5.34l7.62,10.55c-3.56,4.31-9.91,8.25-19.56,8.25-16.89,0-28.07-13.46-28.07-32.26S1795.49,150.31,1812.38,150.31Z" transform="translate(-92 -107.9)"/><path class="cls-1" d="M1838.16,133.67a9.15,9.15,0,1,1,18.29,0,9.15,9.15,0,1,1-18.29,0Zm1.52,79.51V151.84h15.24v61.34Z" transform="translate(-92 -107.9)"/><path class="cls-1" d="M1899.12,213.18v-6.1c-3.43,4.83-9.91,7.62-16.13,7.62-9.65,0-18.92-7.24-18.92-20.32,0-13.46,9.27-19.81,18.92-19.81,6.35,0,12.83,2.41,16.13,7.24v-8.13c0-6.6-4.06-10.67-11.3-10.67-5.34,0-10.54,2.16-15.12,6.61L1867,159.2c6.48-6.22,15.75-8.89,23.62-8.89,13.34,0,23.88,6,23.88,21.72v41.15Zm0-22.48a11.84,11.84,0,0,0-10.29-6c-5.71,0-9.52,4.06-9.52,9.9s3.81,9.78,9.52,9.78a11.48,11.48,0,0,0,10.29-5.84Z" transform="translate(-92 -107.9)"/><path class="cls-1" d="M1929.6,198.44V165.17h-8V151.84h8V135.07h15.24v16.77H1955v13.33h-10.16v29.72c0,3.94,1.52,6.35,4.44,6.35a6.1,6.1,0,0,0,4.58-1.78l3.17,11.68c-2.28,2-6.22,3.56-11.81,3.56C1934.55,214.7,1929.6,209.24,1929.6,198.44Z" transform="translate(-92 -107.9)"/><path class="cls-1" d="M1962,133.67a9.15,9.15,0,1,1,18.29,0,9.15,9.15,0,1,1-18.29,0Zm1.53,79.51V151.84h15.24v61.34Z" transform="translate(-92 -107.9)"/><path class="cls-1" d="M1988,182.44c0-17.14,9.65-32.13,27.68-32.13,18.29,0,27.82,15,27.82,32.13S2034,214.7,2015.7,214.7C1997.67,214.7,1988,199.71,1988,182.44Zm39.75,0c0-10-3.68-18.67-12.07-18.67-8.12,0-11.81,8.64-11.81,18.67s3.69,18.8,11.81,18.8C2024.09,201.24,2027.77,192.6,2027.77,182.44Z" transform="translate(-92 -107.9)"/><path class="cls-1" d="M2087.2,213.18V172.79c0-6.48-2.92-9-8-9s-9,3.94-11.17,7.62v41.79h-15.24V151.84H2068v8a22.76,22.76,0,0,1,18-9.53c11.3,0,16.38,6.61,16.38,16.77v46.1Z" transform="translate(-92 -107.9)"/><path class="cls-1" d="M598.36,307.52V254.16H606v53.36Z" transform="translate(-92 -107.9)"/><path class="cls-1" d="M615.32,307.52V254.16h7.6V300.8h19v6.72Z" transform="translate(-92 -107.9)"/><path class="cls-1" d="M648.2,307.52V254.16h7.6V300.8h19v6.72Z" transform="translate(-92 -107.9)"/><path class="cls-1" d="M681.08,307.52V254.16h7.6v53.36Z" transform="translate(-92 -107.9)"/><path class="cls-1" d="M726.6,307.52l-21-39v39H698V254.16h7.68L726.28,292V254.16h7.6v53.36Z" transform="translate(-92 -107.9)"/><path class="cls-1" d="M762,253.28c13.28,0,20.88,12,20.88,27.6s-7.6,27.6-20.88,27.6-20.72-12-20.72-27.6S748.84,253.28,762,253.28Zm0,6.8c-8.4,0-13,9-13,20.8,0,11.6,4.56,20.8,13,20.8s13-9.2,13-20.8C775.08,269.12,770.44,260.08,762,260.08Z" transform="translate(-92 -107.9)"/><path class="cls-1" d="M790.35,307.52V254.16H798v53.36Z" transform="translate(-92 -107.9)"/><path class="cls-1" d="M808,295.84a16.76,16.76,0,0,0,12.56,5.84c6.16,0,9.12-3.68,9.12-7.92,0-5.36-4.8-7.68-10.16-10.16-6.48-3-13.92-6.16-13.92-15.84,0-8.24,6.48-14.48,16-14.48A20.27,20.27,0,0,1,836.27,259l-3.84,5.76a14.81,14.81,0,0,0-11.12-4.64c-4.64,0-8,2.88-8,7.28,0,4.56,4.56,6.64,9.6,9,6.72,3.12,14.4,6.72,14.4,16.88,0,8.24-5.52,15.2-16.72,15.2-7.28,0-12.8-2.64-16.56-6.72Z" transform="translate(-92 -107.9)"/><path class="cls-1" d="M843.39,269.84c2.56-1.68,5-4.88,5.36-7.52a3.36,3.36,0,0,1-1.12.24,4.28,4.28,0,0,1-4.24-4.48,4.73,4.73,0,0,1,4.72-4.72c2.88,0,5.36,2.32,5.36,6.48a15.94,15.94,0,0,1-6.8,12.64Z" transform="translate(-92 -107.9)"/><path class="cls-1" d="M906,307.52l-21-39v39h-7.6V254.16h7.68L905.71,292V254.16h7.6v53.36Z" transform="translate(-92 -107.9)"/><path class="cls-1" d="M941.47,253.28c13.28,0,20.88,12,20.88,27.6s-7.6,27.6-20.88,27.6-20.72-12-20.72-27.6S928.27,253.28,941.47,253.28Zm0,6.8c-8.4,0-13,9-13,20.8,0,11.6,4.56,20.8,13,20.8s13-9.2,13-20.8C954.51,269.12,949.87,260.08,941.47,260.08Z" transform="translate(-92 -107.9)"/><path class="cls-1" d="M998.35,307.52l-21-39v39h-7.6V254.16h7.68L998,292V254.16h7.6v53.36Z" transform="translate(-92 -107.9)"/><path class="cls-1" d="M1012,291.12V285.2h16.64v5.92Z" transform="translate(-92 -107.9)"/><path class="cls-1" d="M1035.07,307.52V254.16h17.2c10.16,0,15.28,7.52,15.28,16.32s-5.2,16.32-15.28,16.32h-9.6v20.72Zm16.32-46.64h-8.72v19.2h8.72c5.12,0,8.32-3.92,8.32-9.6S1056.51,260.88,1051.39,260.88Z" transform="translate(-92 -107.9)"/><path class="cls-1" d="M1097.87,307.52l-3.12-11.28h-19l-3.12,11.28h-7.92l15.92-53.36h9.12l16,53.36Zm-12.64-46.32-7.84,28.32h15.76Z" transform="translate(-92 -107.9)"/><path class="cls-1" d="M1134.59,307.52l-9.68-20.72h-7.12v20.72h-7.6V254.16h17.36c8.88,0,15.12,6.4,15.12,16.24,0,9.44-5.28,14-10.32,15.12l10.8,22Zm-8.08-46.64h-8.72v19.2h8.72c5.12,0,8.32-3.92,8.32-9.6S1131.63,260.88,1126.51,260.88Z" transform="translate(-92 -107.9)"/><path class="cls-1" d="M1158.67,307.52V260.88h-12.4v-6.72h32.48v6.72h-12.48v46.64Z" transform="translate(-92 -107.9)"/><path class="cls-1" d="M1184.67,307.52V254.16h7.6v53.36Z" transform="translate(-92 -107.9)"/><path class="cls-1" d="M1202.27,295.84a16.76,16.76,0,0,0,12.56,5.84c6.16,0,9.12-3.68,9.12-7.92,0-5.36-4.8-7.68-10.16-10.16-6.48-3-13.92-6.16-13.92-15.84,0-8.24,6.48-14.48,16-14.48a20.27,20.27,0,0,1,14.72,5.68l-3.84,5.76a14.81,14.81,0,0,0-11.12-4.64c-4.64,0-8,2.88-8,7.28,0,4.56,4.56,6.64,9.6,9,6.72,3.12,14.4,6.72,14.4,16.88,0,8.24-5.52,15.2-16.72,15.2-7.28,0-12.8-2.64-16.56-6.72Z" transform="translate(-92 -107.9)"/><path class="cls-1" d="M1266.27,307.52l-3.12-11.28h-19l-3.12,11.28h-7.92l15.92-53.36h9.12l16,53.36Zm-12.64-46.32-7.84,28.32h15.76Z" transform="translate(-92 -107.9)"/><path class="cls-1" d="M1307.15,307.52l-21-39v39h-7.6V254.16h7.68L1306.83,292V254.16h7.6v53.36Z" transform="translate(-92 -107.9)"/><path class="cls-1" d="M1339.55,307.52V254.16h28.32v6.72h-20.72V277h20.16v6.72h-20.16v23.84Z" transform="translate(-92 -107.9)"/><path class="cls-1" d="M1374.75,254.16h7.6V290c0,7.68,3.76,11.76,10.24,11.76s10.24-4.08,10.24-11.76V254.16h7.6v35.76c0,11.92-6.72,18.56-17.84,18.56s-17.84-6.64-17.84-18.56Z" transform="translate(-92 -107.9)"/><path class="cls-1" d="M1419.78,307.52V254.16h7.6V300.8h19v6.72Z" transform="translate(-92 -107.9)"/><path class="cls-1" d="M1452.66,307.52V254.16h7.6V300.8h19v6.72Z" transform="translate(-92 -107.9)"/><path class="cls-1" d="M1482.58,291.12V285.2h16.64v5.92Z" transform="translate(-92 -107.9)"/><path class="cls-1" d="M1506.26,295.84a16.76,16.76,0,0,0,12.56,5.84c6.16,0,9.12-3.68,9.12-7.92,0-5.36-4.8-7.68-10.16-10.16-6.48-3-13.92-6.16-13.92-15.84,0-8.24,6.48-14.48,16-14.48a20.27,20.27,0,0,1,14.72,5.68l-3.84,5.76a14.81,14.81,0,0,0-11.12-4.64c-4.64,0-8,2.88-8,7.28,0,4.56,4.56,6.64,9.6,9,6.72,3.12,14.4,6.72,14.4,16.88,0,8.24-5.52,15.2-16.72,15.2-7.28,0-12.8-2.64-16.56-6.72Z" transform="translate(-92 -107.9)"/><path class="cls-1" d="M1542.5,307.52V254.16h28.32v6.72H1550.1V277h20.16v6.72H1550.1V300.8h20.72v6.72Z" transform="translate(-92 -107.9)"/><path class="cls-1" d="M1602.82,307.52l-9.68-20.72H1586v20.72h-7.6V254.16h17.36c8.88,0,15.12,6.4,15.12,16.24,0,9.44-5.28,14-10.32,15.12l10.8,22Zm-8.08-46.64H1586v19.2h8.72c5.12,0,8.32-3.92,8.32-9.6S1599.86,260.88,1594.74,260.88Z" transform="translate(-92 -107.9)"/><path class="cls-1" d="M1629.14,307.52l-15.92-53.36h8.24l12.24,44.32L1646,254.16h8.24l-16,53.36Z" transform="translate(-92 -107.9)"/><path class="cls-1" d="M1658.66,307.52V254.16h7.6v53.36Z" transform="translate(-92 -107.9)"/><path class="cls-1" d="M1673.7,280.88c0-16,8.16-27.6,21-27.6,8.88,0,13.6,5.36,16.48,11.12l-6.32,2.88c-2.08-4.32-5.44-7.2-10.16-7.2-8.08,0-13.28,8.8-13.28,20.8s5.2,20.8,13.28,20.8c5,0,8.32-3.36,10.16-7.84l6.4,2.88c-2.88,6.08-7.52,11.76-16.56,11.76C1681.86,308.48,1673.7,296.88,1673.7,280.88Z" transform="translate(-92 -107.9)"/><path class="cls-1" d="M1717.46,307.52V254.16h28.32v6.72h-20.72V277h20.16v6.72h-20.16V300.8h20.72v6.72Z" transform="translate(-92 -107.9)"/><path class="cls-1" d="M1801.14,307.52,1793,267.28l-8.16,40.24h-8l-12-53.36H1773l8.24,41.68,8.64-41.68h6.24l8.72,41.68,8.16-41.68h8.16l-11.92,53.36Z" transform="translate(-92 -107.9)"/><path class="cls-1" d="M1852.18,307.52l-3.12-11.28h-19L1827,307.52h-7.92L1835,254.16h9.12l16,53.36Zm-12.64-46.32-7.84,28.32h15.76Z" transform="translate(-92 -107.9)"/><path class="cls-1" d="M1869.7,307.52V260.88h-12.4v-6.72h32.48v6.72H1877.3v46.64Z" transform="translate(-92 -107.9)"/><path class="cls-1" d="M1892.34,280.88c0-16,8.16-27.6,21-27.6,8.88,0,13.6,5.36,16.48,11.12l-6.32,2.88c-2.08-4.32-5.44-7.2-10.16-7.2-8.08,0-13.28,8.8-13.28,20.8s5.2,20.8,13.28,20.8c5,0,8.32-3.36,10.16-7.84l6.4,2.88c-2.88,6.08-7.52,11.76-16.56,11.76C1900.5,308.48,1892.34,296.88,1892.34,280.88Z" transform="translate(-92 -107.9)"/><path class="cls-1" d="M1964.42,307.52V283.44H1943.7v24.08h-7.6V254.16h7.6v22.56h20.72V254.16h7.68v53.36Z" transform="translate(-92 -107.9)"/><path class="cls-1" d="M1981.38,307.52V254.16h15c14.08,0,22,11.36,22,26.72s-7.84,26.64-21.92,26.64Zm7.6-6.72h7.44c9.36,0,14.16-8.48,14.16-19.92,0-11.6-4.72-20-14.16-20H1989Z" transform="translate(-92 -107.9)"/><path class="cls-1" d="M2044.66,253.28c13.28,0,20.88,12,20.88,27.6s-7.6,27.6-20.88,27.6-20.72-12-20.72-27.6S2031.46,253.28,2044.66,253.28Zm0,6.8c-8.4,0-13,9-13,20.8,0,11.6,4.56,20.8,13,20.8s13-9.2,13-20.8C2057.7,269.12,2053.06,260.08,2044.66,260.08Z" transform="translate(-92 -107.9)"/><path class="cls-1" d="M2092.26,253.28c8.24,0,13.36,4.8,16.4,10.72l-6.16,3c-2.08-4.08-5.44-7-10.24-7-8,0-13.44,8.24-13.44,20.8s5.44,20.88,13.44,20.88a12.82,12.82,0,0,0,9.52-4.16V286.4h-12v-6.72H2109v20.8a20.82,20.82,0,0,1-16.72,8.08c-12.72,0-21.2-11.2-21.2-27.68S2079.54,253.28,2092.26,253.28Z" transform="translate(-92 -107.9)"/><path class="cls-1" d="M309.9,254.13H326v18.73c0,7.1-5.49,12.91-15.49,12.91-9.37,0-15.5-5.81-15.5-12.91V167.62c0-7.1,5.17-12.27,14.85-12.27s14.52,5.17,14.52,12.27V194.1h55.85V167c0-29.06-27.76-59.08-71.34-59.08-43.9,0-73.28,30-73.28,59.08V274.15c0,31.63,24.53,59.4,63.92,59.4,17.76,0,35.19-9.68,43.25-26.48l6.46,21h32V219.27H309.9Z" transform="translate(-92 -107.9)"/><path class="cls-1" d="M498.78,113.06H431.62L388,328.09h52.63l4.84-30h34.23l3.87,30h57.8Zm-46.5,145.29,12.27-72.64,9.69,72.64ZM176.92,113.06H92v215h84.92c27.77,0,51-16.14,51-46.16V255.77c0-17.11-6.45-31.64-28.09-37.12,22.6-3.88,28.09-21.64,28.09-37.14V159.24C227.93,129.53,204.69,113.06,176.92,113.06ZM174,274.17c0,7.76-3.88,10.66-10,10.66H149.8V239.31H164c6.14,0,10,3.22,10,10.65Zm0-82.65c0,7.43-3.88,10.65-10,10.65H149.8V156.66H164c6.14,0,10,2.9,10,10.64Z" transform="translate(-92 -107.9)"/><line class="cls-2" x1="480.5" y1="4.6" x2="480.5" y2="220.6"/></svg>