<svg id="Layer_1" data-name="Layer 1" xmlns="http://www.w3.org/2000/svg" viewBox="0 0 725 364.04"><defs><style>.cls-1{fill:#fff;}</style></defs><path class="cls-1" d="M448.54,415.82h26V446c0,11.47-8.85,20.84-25,20.84-15.11,0-25-9.37-25-20.84V276.24c0-11.45,8.33-19.78,24-19.78S472,264.79,472,276.24V319h90.09V275.22c0-46.89-44.77-95.32-115.09-95.32-70.82,0-118.22,48.43-118.22,95.32V448.11c0,51,39.58,95.83,103.13,95.83,28.64,0,56.76-15.62,69.77-42.72l10.42,33.87h51.58V359.57H448.54Z" transform="translate(-97 -179.9)"/><path class="cls-1" d="M753.24,188.23H644.9l-70.33,346.9h84.91l7.81-48.45h55.22l6.24,48.45H822Zm-75,234.4L698,305.43l15.63,117.2ZM234,188.23H97v346.9H234c44.8,0,82.3-26.05,82.3-74.48V418.46c0-27.61-10.42-51-45.32-59.89,36.45-6.26,45.32-34.91,45.32-59.91V262.72C316.3,214.79,278.8,188.23,234,188.23Zm-4.68,259.9c0,12.52-6.26,17.2-16.16,17.2H190.24V391.9h22.92c9.9,0,16.16,5.2,16.16,17.18Zm0-133.32c0,12-6.26,17.18-16.16,17.18H190.24V258.56h22.92c9.9,0,16.16,4.68,16.16,17.17Z" transform="translate(-97 -179.9)"/></svg>